<svg xmlns="http://www.w3.org/2000/svg" version="1.1" xmlns:xlink="http://www.w3.org/1999/xlink" xmlns:svgjs="http://svgjs.dev/svgjs" width="128" height="128" viewBox="0 0 128 128"><g transform="matrix(0.8046875,0,0,0.8046875,11.647896449999983,15.350429086850632)"><svg viewBox="0 0 60 56" data-background-color="#f3f2ec" preserveAspectRatio="xMidYMid meet" height="119" width="128" xmlns="http://www.w3.org/2000/svg" xmlns:xlink="http://www.w3.org/1999/xlink"><g id="tight-bounds" transform="matrix(1,0,0,1,0.49637100000001055,0.4506913849599954)"><svg viewBox="0 0 59.00725799999999 55.09861723008" height="55.09861723008" width="59.00725799999999"><g><svg viewBox="0 0 59.00725799999999 55.09861723008" height="55.09861723008" width="59.00725799999999"><g><svg viewBox="0 0 59.00725799999999 55.09861723008" height="55.09861723008" width="59.00725799999999"><g><svg viewBox="0 0 59.00725799999999 55.09861723008" height="55.09861723008" width="59.00725799999999"><g id="textblocktransform"><svg viewBox="0 0 59.00725799999999 55.09861723008" height="55.09861723008" width="59.00725799999999" id="textblock"><g><svg viewBox="0 0 59.00725799999999 55.09861723008" height="55.09861723008" width="59.00725799999999"><g><svg viewBox="0 0 59.00725799999999 55.09861723008" height="55.09861723008" width="59.00725799999999"><g><svg xmlns="http://www.w3.org/2000/svg" xmlns:xlink="http://www.w3.org/1999/xlink" version="1.1" x="0" y="0" viewBox="0 5.312 100 93.376" enable-background="new 0 0 100 100" xml:space="preserve" height="55.09861723008" width="59.00725799999999" class="icon-icon-0" data-fill-palette-color="accent" id="icon-0"><polygon points="91.822,10.995 91.822,5.312 52.71,29.765 " fill="#c5a992" data-fill-palette-color="accent"></polygon><polygon points="52.71,31.876 52.71,98.688 100,76.418 100,9.605 " fill="#c5a992" data-fill-palette-color="accent"></polygon><polygon points="8.178,10.995 8.178,5.312 47.29,29.765 " fill="#c5a992" data-fill-palette-color="accent"></polygon><polygon points="47.29,31.876 47.29,98.688 0,76.418 0,9.605 " fill="#c5a992" data-fill-palette-color="accent"></polygon></svg></g></svg></g></svg></g></svg></g></svg></g></svg></g></svg></g><defs></defs></svg><rect width="59.00725799999999" height="55.09861723008" fill="none" stroke="none" visibility="hidden"></rect></g></svg></g></svg>